<svg xmlns="http://www.w3.org/2000/svg" id="mermaid-1543508794711" width="100%" height="100%" viewBox="-50 -10 750 786" style="max-width:750px"><style>#mermaid-1543508794711 .actor{stroke:#ccf;fill:#ececff}#mermaid-1543508794711 text.actor{fill:#000;stroke:none}#mermaid-1543508794711 .actor-line{stroke:gray}#mermaid-1543508794711 .messageLine0{marker-end:&quot;url(#arrowhead)&quot;;stroke-width:1.5;stroke-dasharray:&quot;2 2&quot;;stroke:#333}#mermaid-1543508794711 #arrowhead{fill:#333}#mermaid-1543508794711 #crosshead path{fill:#333!important;stroke:#333!important}#mermaid-1543508794711 .messageText{fill:#333;stroke:none}#mermaid-1543508794711 .note{stroke:#aa3;fill:#fff5ad}#mermaid-1543508794711 .noteText{fill:#000;stroke:none;font-family:trebuchet ms,verdana,arial;font-size:14px}</style><style>#mermaid-1543508794711{color:#000;font:400 16px &quot;Times New Roman&quot;}</style><g><line id="actor0" x1="75" x2="75" y1="5" y2="775" stroke="#999" stroke-width=".5" class="actor-line"/><rect width="150" height="65" x="0" y="0" fill="#eaeaea" stroke="#666" class="actor" rx="3" ry="3"/><text x="75" y="32.5" alignment-baseline="central" class="actor" dominant-baseline="central" style="text-anchor:middle"><tspan x="75" dy="0">Resource Owner</tspan></text></g><g><line id="actor1" x1="275" x2="275" y1="5" y2="775" stroke="#999" stroke-width=".5" class="actor-line"/><rect width="150" height="65" x="200" y="0" fill="#eaeaea" stroke="#666" class="actor" rx="3" ry="3"/><text x="275" y="32.5" alignment-baseline="central" class="actor" dominant-baseline="central" style="text-anchor:middle"><tspan x="275" dy="0">Client App (vue.js)</tspan></text></g><g><line id="actor2" x1="475" x2="475" y1="5" y2="775" stroke="#999" stroke-width=".5" class="actor-line"/><rect width="150" height="65" x="400" y="0" fill="#eaeaea" stroke="#666" class="actor" rx="3" ry="3"/><text x="475" y="32.5" alignment-baseline="central" class="actor" dominant-baseline="central" style="text-anchor:middle"><tspan x="475" dy="0">Authorization Server</tspan></text></g><defs><marker id="arrowhead" markerHeight="4" markerWidth="6" orient="auto" refX="5" refY="2"><path d="M 0,0 V 4 L6,2 Z"/></marker></defs><defs><marker id="crosshead" markerHeight="8" markerWidth="15" orient="auto" refX="16" refY="4"><path fill="#000" stroke="#000" stroke-width="1" d="M 9,2 V 6 L16,4 Z" style="stroke-dasharray:0,0"/><path fill="none" stroke="#000" stroke-width="1" d="M 0,1 L 6,7 M 6,1 L 0,7" style="stroke-dasharray:0,0"/></marker></defs><g><text x="175" y="93" class="messageText" style="text-anchor:middle">1. Access App</text><line x1="75" x2="275" y1="100" y2="100" stroke="#000" stroke-width="2" marker-end="url(#arrowhead)" class="messageLine0" style="fill:none"/></g><g><rect width="150" height="52" x="300" y="110" fill="#EDF2AE" stroke="#666" class="note" rx="0" ry="0"/><text x="296" y="134" fill="#000" class="noteText"><tspan x="316" fill="#000">create random (v)</tspan></text><text x="296" y="150" fill="#000" class="noteText"><tspan x="316" fill="#000">$ = sha256(v)</tspan></text></g><g><text x="175" y="190" class="messageText" style="text-anchor:middle">2. Redirect with $</text><line x1="275" x2="75" y1="197" y2="197" stroke="#000" stroke-width="2" marker-end="url(#arrowhead)" class="messageLine0" style="fill:none"/></g><g><text x="275" y="225" class="messageText" style="text-anchor:middle">3. Redirect to Login with $</text><line x1="75" x2="475" y1="232" y2="232" stroke="#000" stroke-width="2" marker-end="url(#arrowhead)" class="messageLine0" style="fill:none"/></g><g><rect width="150" height="36" x="500" y="242" fill="#EDF2AE" stroke="#666" class="note" rx="0" ry="0"/><text x="496" y="266" fill="#000" class="noteText"><tspan x="516" fill="#000">store $</tspan></text></g><g><text x="275" y="306" class="messageText" style="text-anchor:middle">4. Returns Login Form</text><line x1="475" x2="75" y1="313" y2="313" stroke="#000" stroke-width="2" marker-end="url(#arrowhead)" class="messageLine0" style="fill:none"/></g><g><text x="275" y="341" class="messageText" style="text-anchor:middle">5. Submits Credentials</text><line x1="75" x2="475" y1="348" y2="348" stroke="#000" stroke-width="2" marker-end="url(#arrowhead)" class="messageLine0" style="fill:none"/></g><g><rect width="150" height="36" x="500" y="358" fill="#EDF2AE" stroke="#666" class="note" rx="0" ry="0"/><text x="496" y="382" fill="#000" class="noteText"><tspan x="516" fill="#000">authenticate user</tspan></text></g><g><text x="275" y="422" class="messageText" style="text-anchor:middle">6. Redirect with code (α)</text><line x1="475" x2="75" y1="429" y2="429" stroke="#000" stroke-width="2" marker-end="url(#arrowhead)" class="messageLine0" style="fill:none"/></g><g><text x="175" y="457" class="messageText" style="text-anchor:middle">7. Redirect to App with code (α)</text><line x1="75" x2="275" y1="464" y2="464" stroke="#000" stroke-width="2" marker-end="url(#arrowhead)" class="messageLine0" style="fill:none"/></g><g><text x="375" y="492" class="messageText" style="text-anchor:middle">8. Request Token</text><line x1="275" x2="475" y1="499" y2="499" stroke="#000" stroke-width="2" marker-end="url(#arrowhead)" class="messageLine0" style="fill:none"/></g><g><rect width="250" height="52" x="250" y="509" fill="#EDF2AE" stroke="#666" class="note" rx="0" ry="0"/><text x="246" y="533" fill="#000" class="noteText"><tspan x="266" fill="#000">request includes:</tspan></text><text x="246" y="549" fill="#000" class="noteText"><tspan x="266" fill="#000">Client ID, (v), (α)</tspan></text></g><g><rect width="150" height="84" x="500" y="571" fill="#EDF2AE" stroke="#666" class="note" rx="0" ry="0"/><text x="496" y="595" fill="#000" class="noteText"><tspan x="516" fill="#000">validate:</tspan></text><text x="496" y="611" fill="#000" class="noteText"><tspan x="516" fill="#000">- Client ID</tspan></text><text x="496" y="627" fill="#000" class="noteText"><tspan x="516" fill="#000">- sha256(v) = $</tspan></text><text x="496" y="643" fill="#000" class="noteText"><tspan x="516" fill="#000">- (α)</tspan></text></g><g><text x="375" y="683" class="messageText" style="text-anchor:middle">9. Return Token</text><line x1="475" x2="275" y1="690" y2="690" stroke="#000" stroke-width="2" marker-end="url(#arrowhead)" class="messageLine0" style="fill:none"/></g><g><rect width="150" height="65" x="0" y="710" fill="#eaeaea" stroke="#666" class="actor" rx="3" ry="3"/><text x="75" y="742.5" alignment-baseline="central" class="actor" dominant-baseline="central" style="text-anchor:middle"><tspan x="75" dy="0">Resource Owner</tspan></text></g><g><rect width="150" height="65" x="200" y="710" fill="#eaeaea" stroke="#666" class="actor" rx="3" ry="3"/><text x="275" y="742.5" alignment-baseline="central" class="actor" dominant-baseline="central" style="text-anchor:middle"><tspan x="275" dy="0">Client App (vue.js)</tspan></text></g><g><rect width="150" height="65" x="400" y="710" fill="#eaeaea" stroke="#666" class="actor" rx="3" ry="3"/><text x="475" y="742.5" alignment-baseline="central" class="actor" dominant-baseline="central" style="text-anchor:middle"><tspan x="475" dy="0">Authorization Server</tspan></text></g></svg>